# Blender v2.79 (sub 0) OBJ File: ''
# www.blender.org
mtllib block_spring_a.mtl
o Cube
v -9.999998 -10.000000 10.000001
v -10.000002 -10.000000 -9.999998
v 9.999999 -10.000000 -10.000000
v 9.999998 -10.000000 10.000002
v -10.000003 10.000000 9.999996
v -9.999995 10.000000 -10.000004
v 10.000002 10.000000 -9.999998
v 10.000001 10.000000 9.999998
v 0.000002 10.000000 7.999998
v 1.560723 10.000000 7.846280
v 3.061473 10.000000 7.391033
v 4.444567 10.000000 6.651753
v 5.656859 10.000000 5.656850
v 6.651760 10.000000 4.444558
v 7.391039 10.000000 3.061463
v 7.846284 10.000000 1.560719
v 7.999998 10.000000 -0.000003
v 7.846284 10.000000 -1.560725
v 7.391038 10.000000 -3.061470
v 6.651759 10.000000 -4.444566
v 5.656857 10.000000 -5.656858
v 4.444565 10.000000 -6.651761
v 3.061461 10.000000 -7.391041
v 1.560721 10.000000 -7.846286
v -1.560727 10.000000 -7.846284
v -3.061472 10.000000 -7.391037
v -4.444566 10.000000 -6.651756
v -5.656858 10.000000 -5.656853
v -6.651759 10.000000 -4.444560
v -7.391038 10.000000 -3.061463
v -7.846283 10.000000 -1.560717
v -8.000001 10.000000 0.000006
v -7.846279 10.000000 1.560729
v -7.391032 10.000000 3.061474
v -6.651749 10.000000 4.444569
v -5.656847 10.000000 5.656859
v -4.444550 10.000000 6.651760
v -3.061455 10.000000 7.391039
v -1.560710 10.000000 7.846282
v 9.000002 9.000000 -9.999997
v -8.999999 9.000000 -9.999995
v -8.999999 -9.000001 -9.999995
v 9.000002 -9.000001 -9.999997
v 9.000002 -9.000001 9.000003
v 9.000002 9.000000 9.000003
v -8.999999 9.000000 9.000005
v -8.999999 -9.000001 9.000005
v 0.000002 6.000000 7.999998
v 1.560723 6.000000 7.846280
v 3.061473 6.000000 7.391033
v 4.444567 6.000000 6.651753
v 5.656859 6.000000 5.656850
v 6.651760 6.000000 4.444558
v 7.391039 6.000000 3.061463
v 7.846284 6.000000 1.560719
v 7.999998 6.000000 -0.000003
v 7.846284 6.000000 -1.560725
v 7.391038 6.000000 -3.061470
v 6.651759 6.000000 -4.444566
v 5.656857 6.000000 -5.656858
v 4.444565 6.000000 -6.651761
v 3.061461 6.000000 -7.391041
v 1.560721 6.000000 -7.846286
v -0.000005 6.000000 -8.000003
v -1.560727 6.000000 -7.846284
v -3.061472 6.000000 -7.391037
v -4.444566 6.000000 -6.651756
v -5.656858 6.000000 -5.656853
v -6.651759 6.000000 -4.444560
v -7.391038 6.000000 -3.061463
v -7.846283 6.000000 -1.560717
v -8.000001 6.000000 0.000006
v -7.846279 6.000000 1.560729
v -7.391032 6.000000 3.061474
v -6.651749 6.000000 4.444569
v -5.656847 6.000000 5.656859
v -4.444550 6.000000 6.651760
v -3.061455 6.000000 7.391039
v -1.560710 6.000000 7.846282
v -0.000005 10.000000 -8.000003
v 0.000001 9.000000 -9.999996
v 7.999998 6.000000 -1.000003
v 7.846284 6.000000 -2.560725
v 7.391038 6.000000 -4.061470
v 6.651759 6.000000 -5.444566
v 5.656857 6.000000 -6.656858
v 4.444566 6.000000 -7.651761
v 3.061461 6.000000 -8.391041
v 1.560721 6.000000 -8.846286
v -0.000005 6.000000 -9.000004
v -1.560727 6.000000 -8.846285
v -3.061471 6.000000 -8.391038
v -4.444566 6.000000 -7.651757
v -5.656858 6.000000 -6.656853
v -6.651760 6.000000 -5.444560
v -7.391038 6.000000 -4.061463
v -7.846284 6.000000 -2.560717
v -8.000001 6.000000 -0.999995
v 7.999998 9.000000 -1.000003
v 7.846284 9.000000 -2.560725
v 7.391038 9.000000 -4.061470
v 6.651759 9.000000 -5.444566
v 5.656857 9.000000 -6.656858
v 4.444566 9.000000 -7.651761
v 3.061461 9.000000 -8.391041
v 1.560721 9.000000 -8.846286
v -0.000005 9.000000 -9.000004
v -1.560727 9.000000 -8.846285
v -3.061471 9.000000 -8.391038
v -4.444566 9.000000 -7.651757
v -5.656858 9.000000 -6.656853
v -6.651760 9.000000 -5.444560
v -7.391038 9.000000 -4.061463
v -7.846284 9.000000 -2.560717
v -8.000001 9.000000 -0.999995
vt 0.500000 0.997500
vt 0.000000 0.997500
vt 0.000000 0.502500
vt 0.500000 0.502500
vt 0.499900 0.502599
vt 0.499900 0.997401
vt 0.000100 0.997401
vt 0.000100 0.502599
vt 0.500050 0.499949
vt 0.500050 0.000050
vt 0.525044 0.025044
vt 0.000100 0.997401
vt 0.000100 0.502599
vt 0.499900 0.502599
vt 0.499900 0.997401
vt 0.499900 0.502599
vt 0.499900 0.997401
vt 0.000100 0.997401
vt 0.000100 0.502599
vt 0.949960 0.750000
vt 0.946118 0.710990
vt 0.999950 0.500050
vt 0.934739 0.673479
vt 0.916261 0.638908
vt 0.891393 0.608607
vt 0.861092 0.583739
vt 0.826522 0.565261
vt 0.789011 0.553882
vt 0.710990 0.553882
vt 0.673479 0.565261
vt 0.500050 0.500050
vt 0.638908 0.583739
vt 0.608607 0.608607
vt 0.583739 0.638908
vt 0.565261 0.673479
vt 0.553882 0.710989
vt 0.550040 0.750000
vt 0.553882 0.789010
vt 0.500050 0.999949
vt 0.565261 0.826521
vt 0.583740 0.861091
vt 0.608607 0.891392
vt 0.638908 0.916260
vt 0.673479 0.934738
vt 0.710990 0.946117
vt 0.750000 0.949959
vt 0.999950 0.999949
vt 0.789010 0.946117
vt 0.826521 0.934738
vt 0.861091 0.916260
vt 0.891393 0.891393
vt 0.916260 0.861091
vt 0.934739 0.826521
vt 0.946118 0.789010
vt 0.525045 0.474954
vt 0.999950 0.499946
vt 0.974955 0.474952
vt 0.999949 0.000050
vt 0.974955 0.025044
vt 0.496127 0.003897
vt 0.496127 0.499976
vt 0.003889 0.499976
vt 0.003889 0.003897
vt 0.496127 0.003897
vt 0.496127 0.499976
vt 0.003889 0.499976
vt 0.003889 0.003897
vt 0.996094 0.003906
vt 0.996094 0.496094
vt 0.503906 0.496094
vt 0.503906 0.003906
vt 0.673479 0.567108
vt 0.710990 0.555843
vt 0.710990 0.555843
vt 0.673479 0.567108
vt 0.710990 0.944156
vt 0.673478 0.932891
vt 0.673478 0.932891
vt 0.710990 0.944156
vt 0.891393 0.889979
vt 0.861091 0.914597
vt 0.861091 0.914597
vt 0.891393 0.889979
vt 0.638908 0.914597
vt 0.638908 0.914597
vt 0.826521 0.932891
vt 0.826521 0.932891
vt 0.608607 0.889978
vt 0.608607 0.889978
vt 0.789010 0.944156
vt 0.789010 0.944156
vt 0.789010 0.555843
vt 0.826522 0.567108
vt 0.826522 0.567108
vt 0.789010 0.555843
vt 0.583739 0.859980
vt 0.583739 0.859980
vt 0.750000 0.947960
vt 0.750000 0.947960
vt 0.861092 0.585402
vt 0.861092 0.585402
vt 0.565261 0.825755
vt 0.565261 0.825755
vt 0.891393 0.610021
vt 0.891393 0.610021
vt 0.553882 0.788620
vt 0.553882 0.788620
vt 0.916261 0.640019
vt 0.916261 0.640019
vt 0.550040 0.749999
vt 0.934739 0.674244
vt 0.934739 0.674244
vt 0.553882 0.711379
vt 0.553882 0.711379
vt 0.946118 0.711380
vt 0.946118 0.711380
vt 0.565261 0.674244
vt 0.565261 0.674244
vt 0.949960 0.750000
vt 0.583739 0.640019
vt 0.583739 0.640019
vt 0.946118 0.788620
vt 0.946118 0.788620
vt 0.608607 0.610021
vt 0.608607 0.610021
vt 0.934739 0.825756
vt 0.934739 0.825756
vt 0.638908 0.585402
vt 0.638908 0.585402
vt 0.916260 0.859980
vt 0.916260 0.859980
vt 0.750003 0.474953
vt 0.750000 0.550040
vt 0.583739 0.640019
vt 0.565261 0.674244
vt 0.861092 0.585402
vt 0.826522 0.567108
vt 0.608607 0.610021
vt 0.891393 0.610021
vt 0.638908 0.585402
vt 0.916261 0.640019
vt 0.673479 0.567108
vt 0.934739 0.674244
vt 0.710990 0.555843
vt 0.946118 0.711380
vt 0.750000 0.552039
vt 0.750000 0.552039
vt 0.553882 0.711379
vt 0.550040 0.749999
vt 0.949960 0.750000
vt 0.789010 0.555843
vt 0.934739 0.674244
vt 0.916261 0.640019
vt 0.710990 0.555843
vt 0.673479 0.567108
vt 0.946118 0.711380
vt 0.750000 0.552039
vt 0.553882 0.711379
vt 0.550040 0.749999
vt 0.949960 0.750000
vt 0.789010 0.555843
vt 0.565261 0.674244
vt 0.826522 0.567108
vt 0.583739 0.640019
vt 0.861092 0.585402
vt 0.608607 0.610021
vt 0.891393 0.610021
vt 0.638908 0.585402
vt 0.003941 0.003924
vt 0.496027 0.003924
vt 0.496027 0.499950
vt 0.003942 0.499950
vn 0.0000 -1.0000 -0.0000
vn -1.0000 0.0000 -0.0000
vn -0.0000 0.0000 -1.0000
vn 1.0000 -0.0000 0.0000
vn -0.0000 0.0000 1.0000
vn 0.0000 1.0000 0.0000
vn -0.2903 0.0000 0.9569
vn -0.2903 0.0000 -0.9569
vn 0.6344 0.0000 -0.7730
vn -0.4714 0.0000 -0.8819
vn 0.4714 0.0000 -0.8819
vn -0.6344 0.0000 -0.7730
vn 0.2903 0.0000 -0.9569
vn 0.2903 0.0000 0.9569
vn -0.7730 0.0000 -0.6344
vn 0.0980 0.0000 -0.9952
vn 0.4714 0.0000 0.8819
vn -0.8819 0.0000 -0.4714
vn 0.6344 0.0000 0.7730
vn -0.9569 0.0000 -0.2903
vn 0.7730 0.0000 0.6344
vn -0.9952 0.0000 -0.0980
vn 0.8819 0.0000 0.4714
vn -0.9952 0.0000 0.0980
vn 0.9569 0.0000 0.2903
vn -0.9569 0.0000 0.2903
vn 0.9952 0.0000 0.0980
vn -0.8819 0.0000 0.4714
vn 0.9952 0.0000 -0.0980
vn -0.7730 0.0000 0.6344
vn 0.9569 0.0000 -0.2903
vn -0.6344 0.0000 0.7730
vn 0.8819 0.0000 -0.4714
vn -0.4714 0.0000 0.8819
vn -0.0980 0.0000 -0.9952
vn 0.7730 0.0000 -0.6344
vn 0.0980 0.0000 0.9952
vn -0.0980 0.0000 0.9952
usemtl Material
s off
f 1/1/1 2/2/1 3/3/1 4/4/1
f 1/5/2 5/6/2 6/7/2 2/8/2
f 7/9/3 3/10/3 43/11/3
f 3/12/4 7/13/4 8/14/4 4/15/4
f 5/16/5 1/17/5 4/18/5 8/19/5
f 32/20/6 31/21/6 6/22/6
f 31/21/6 30/23/6 6/22/6
f 30/23/6 29/24/6 6/22/6
f 29/24/6 28/25/6 6/22/6
f 28/25/6 27/26/6 6/22/6
f 27/26/6 26/27/6 6/22/6
f 26/27/6 25/28/6 6/22/6
f 24/29/6 23/30/6 7/31/6
f 23/30/6 22/32/6 7/31/6
f 22/32/6 21/33/6 7/31/6
f 21/33/6 20/34/6 7/31/6
f 20/34/6 19/35/6 7/31/6
f 19/35/6 18/36/6 7/31/6
f 18/36/6 17/37/6 7/31/6
f 17/37/6 16/38/6 8/39/6
f 16/38/6 15/40/6 8/39/6
f 15/40/6 14/41/6 8/39/6
f 14/41/6 13/42/6 8/39/6
f 13/42/6 12/43/6 8/39/6
f 12/43/6 11/44/6 8/39/6
f 11/44/6 10/45/6 8/39/6
f 10/45/6 9/46/6 8/39/6
f 8/39/6 9/46/6 5/47/6
f 9/46/6 39/48/6 5/47/6
f 39/48/6 38/49/6 5/47/6
f 38/49/6 37/50/6 5/47/6
f 37/50/6 36/51/6 5/47/6
f 36/51/6 35/52/6 5/47/6
f 35/52/6 34/53/6 5/47/6
f 34/53/6 33/54/6 5/47/6
f 33/54/6 32/20/6 5/47/6
f 6/22/6 5/47/6 32/20/6
f 8/39/6 7/31/6 17/37/6
f 40/55/3 7/9/3 43/11/3
f 7/9/3 40/55/3 6/56/3
f 6/56/3 41/57/3 2/58/3
f 41/57/3 42/59/3 2/58/3
f 3/10/3 2/58/3 42/59/3
f 42/59/3 43/11/3 3/10/3
f 44/60/2 45/61/2 40/62/2 43/63/2
f 42/64/4 41/65/4 46/66/4 47/67/4
f 42/68/6 47/69/6 44/70/6 43/71/6
f 23/72/7 24/73/7 63/74/7 62/75/7
f 10/76/8 11/77/8 50/78/8 49/79/8
f 36/80/9 37/81/9 77/82/9 76/83/9
f 11/77/10 12/84/10 51/85/10 50/78/10
f 37/81/11 38/86/11 78/87/11 77/82/11
f 12/84/12 13/88/12 52/89/12 51/85/12
f 38/86/13 39/90/13 79/91/13 78/87/13
f 25/92/14 26/93/14 66/94/14 65/95/14
f 13/88/15 14/96/15 53/97/15 52/89/15
f 39/90/16 9/98/16 48/99/16 79/91/16
f 26/93/17 27/100/17 67/101/17 66/94/17
f 14/96/18 15/102/18 54/103/18 53/97/18
f 27/100/19 28/104/19 68/105/19 67/101/19
f 15/102/20 16/106/20 55/107/20 54/103/20
f 28/104/21 29/108/21 69/109/21 68/105/21
f 16/106/22 17/37/22 56/110/22 55/107/22
f 29/108/23 30/111/23 70/112/23 69/109/23
f 17/37/24 18/113/24 57/114/24 56/110/24
f 30/111/25 31/115/25 71/116/25 70/112/25
f 18/113/26 19/117/26 58/118/26 57/114/26
f 31/115/27 32/20/27 72/119/27 71/116/27
f 19/117/28 20/120/28 59/121/28 58/118/28
f 32/20/29 33/122/29 73/123/29 72/119/29
f 20/120/30 21/124/30 60/125/30 59/121/30
f 33/122/31 34/126/31 74/127/31 73/123/31
f 21/124/32 22/128/32 61/129/32 60/125/32
f 34/126/33 35/130/33 75/131/33 74/127/33
f 22/128/34 23/72/34 62/75/34 61/129/34
f 9/98/35 10/76/35 49/79/35 48/99/35
f 35/130/36 36/80/36 76/83/36 75/131/36
f 40/55/3 81/132/3 6/56/3
f 41/57/3 6/56/3 81/132/3
f 25/28/6 80/133/6 6/22/6
f 7/31/6 6/22/6 80/133/6
f 24/29/6 7/31/6 80/133/6
f 58/118/1 59/121/1 85/134/1 84/135/1
f 66/94/1 67/101/1 93/136/1 92/137/1
f 59/121/1 60/125/1 86/138/1 85/134/1
f 67/101/1 68/105/1 94/139/1 93/136/1
f 60/125/1 61/129/1 87/140/1 86/138/1
f 68/105/1 69/109/1 95/141/1 94/139/1
f 61/129/1 62/75/1 88/142/1 87/140/1
f 69/109/1 70/112/1 96/143/1 95/141/1
f 62/75/1 63/74/1 89/144/1 88/142/1
f 70/112/1 71/116/1 97/145/1 96/143/1
f 63/74/1 64/146/1 90/147/1 89/144/1
f 56/110/1 57/114/1 83/148/1 82/149/1
f 71/116/1 72/119/1 98/150/1 97/145/1
f 64/146/1 65/95/1 91/151/1 90/147/1
f 57/114/1 58/118/1 84/135/1 83/148/1
f 65/95/1 66/94/1 92/137/1 91/151/1
f 95/141/18 96/143/18 113/152/18 112/153/18
f 88/142/13 89/144/13 106/154/13 105/155/13
f 96/143/20 97/145/20 114/156/20 113/152/20
f 89/144/16 90/147/16 107/157/16 106/154/16
f 82/149/29 83/148/29 100/158/29 99/159/29
f 97/145/22 98/150/22 115/160/22 114/156/22
f 90/147/35 91/151/35 108/161/35 107/157/35
f 83/148/31 84/135/31 101/162/31 100/158/31
f 91/151/8 92/137/8 109/163/8 108/161/8
f 84/135/33 85/134/33 102/164/33 101/162/33
f 92/137/10 93/136/10 110/165/10 109/163/10
f 85/134/36 86/138/36 103/166/36 102/164/36
f 93/136/12 94/139/12 111/167/12 110/165/12
f 86/138/9 87/140/9 104/168/9 103/166/9
f 94/139/15 95/141/15 112/153/15 111/167/15
f 87/140/11 88/142/11 105/155/11 104/168/11
f 64/146/37 80/133/37 25/28/37 65/95/37
f 64/146/38 63/74/38 24/29/38 80/133/38
f 44/169/3 47/170/3 46/171/3 45/172/3
