# Blender v2.79 (sub 0) OBJ File: ''
# www.blender.org
mtllib coin.mtl
o Circle
v 7.138403 0.939784 -0.950000
v 7.138403 0.939784 0.950000
v 7.138402 -0.939792 0.950000
v 7.138402 -0.939792 -0.950000
v -0.939792 -7.138402 -0.950003
v -0.939792 -7.138402 0.949997
v -2.755323 -6.651930 0.949997
v -2.755323 -6.651930 -0.950002
v -6.651932 2.755322 -0.950000
v -6.651932 2.755322 0.950000
v -5.712143 4.383082 0.950002
v -5.712143 4.383082 -0.949998
v 6.651934 2.755317 -0.950000
v 6.651934 2.755316 0.950000
v 0.939785 -7.138402 -0.950003
v 0.939785 -7.138402 0.949997
v -7.138402 0.939791 -0.950000
v -7.138402 0.939791 0.950000
v 5.712146 4.383079 -0.949998
v 5.712146 4.383079 0.950002
v 2.755316 -6.651933 -0.950002
v 2.755316 -6.651933 0.949997
v -7.138402 -0.939786 -0.950000
v -7.138402 -0.939786 0.950000
v 4.383087 5.712142 -0.949998
v 4.383087 5.712142 0.950002
v 0.939789 7.138404 -0.949997
v 0.939789 7.138404 0.950003
v 2.755321 6.651933 0.950002
v 2.755321 6.651933 -0.949998
v 4.383080 -5.712145 -0.950002
v 4.383080 -5.712145 0.949998
v -6.651933 -2.755317 -0.950001
v -6.651933 -2.755318 0.949998
v -0.939788 7.138402 -0.949997
v -0.939788 7.138403 0.950003
v 5.712142 -4.383083 -0.950002
v 5.712142 -4.383083 0.949998
v -5.712144 -4.383080 -0.950002
v -5.712144 -4.383080 0.949998
v -2.755320 6.651933 -0.949998
v -2.755320 6.651933 0.950002
v 6.651931 -2.755323 -0.950001
v 6.651931 -2.755323 0.949998
v -4.383083 -5.712142 -0.950002
v -4.383083 -5.712142 0.949998
v -4.383081 5.712145 -0.949998
v -4.383081 5.712145 0.950002
v 0.000000 -0.000000 0.950000
v 0.000000 0.000000 -0.950000
vt 0.113281 0.007827
vt 0.113281 0.125000
vt 0.004297 0.125000
vt 0.004297 0.007827
vt 0.113281 0.007828
vt 0.113281 0.125000
vt 0.004297 0.125000
vt 0.004297 0.007827
vt 0.004297 0.125000
vt 0.004297 0.007828
vt 0.113281 0.007827
vt 0.113281 0.125000
vt 0.113281 0.007827
vt 0.113281 0.125000
vt 0.004297 0.125000
vt 0.004297 0.007827
vt 0.113281 0.007827
vt 0.113281 0.125000
vt 0.004297 0.125000
vt 0.004297 0.007828
vt 0.004297 0.125000
vt 0.004297 0.007827
vt 0.113281 0.007827
vt 0.113281 0.125000
vt 0.113281 0.007827
vt 0.113281 0.125000
vt 0.004297 0.125000
vt 0.004297 0.007828
vt 0.113281 0.007827
vt 0.113281 0.125000
vt 0.004297 0.125000
vt 0.004297 0.007827
vt 0.004297 0.125000
vt 0.004297 0.007827
vt 0.113281 0.007827
vt 0.113281 0.125000
vt 0.113281 0.007827
vt 0.113281 0.125000
vt 0.004297 0.125000
vt 0.004297 0.007827
vt 0.004297 0.125000
vt 0.004297 0.007828
vt 0.113281 0.007827
vt 0.113281 0.125000
vt 0.113280 0.007827
vt 0.113281 0.125000
vt 0.004297 0.125000
vt 0.004297 0.007828
vt 0.004297 0.125000
vt 0.004297 0.007827
vt 0.113281 0.007827
vt 0.113281 0.125000
vt 0.004297 0.125000
vt 0.004297 0.007827
vt 0.113281 0.007827
vt 0.113281 0.125000
vt 0.004297 0.125000
vt 0.004297 0.007827
vt 0.113281 0.007827
vt 0.113281 0.125000
vt 0.113281 0.007827
vt 0.113281 0.125000
vt 0.004297 0.125000
vt 0.004297 0.007827
vt 0.004297 0.125000
vt 0.004297 0.007827
vt 0.113281 0.007827
vt 0.113281 0.125000
vt 0.004297 0.125000
vt 0.004297 0.007827
vt 0.113281 0.007827
vt 0.113281 0.125000
vt 0.113281 0.007827
vt 0.113281 0.125000
vt 0.004297 0.125000
vt 0.004297 0.007827
vt 0.004297 0.125000
vt 0.004297 0.007827
vt 0.113281 0.007827
vt 0.113281 0.125000
vt 0.004297 0.125000
vt 0.004297 0.007827
vt 0.113281 0.007827
vt 0.113281 0.125000
vt 0.113281 0.007827
vt 0.113281 0.125000
vt 0.004297 0.125000
vt 0.004297 0.007827
vt 0.113281 0.007827
vt 0.113281 0.125000
vt 0.004297 0.125000
vt 0.004297 0.007827
vt 0.113247 0.007862
vt 0.113316 0.125000
vt 0.004297 0.125000
vt 0.004297 0.007793
vt 0.999900 0.565813
vt 0.965833 0.692954
vt 0.500000 0.500000
vt 0.900020 0.806945
vt 0.806946 0.900019
vt 0.692954 0.965832
vt 0.565813 0.999900
vt 0.434187 0.999900
vt 0.307046 0.965832
vt 0.193054 0.900019
vt 0.099981 0.806946
vt 0.034168 0.692954
vt 0.000100 0.565813
vt 0.000100 0.434187
vt 0.034168 0.307046
vt 0.099981 0.193054
vt 0.193054 0.099980
vt 0.307046 0.034167
vt 0.434187 0.000100
vt 0.565813 0.000100
vt 0.692954 0.034167
vt 0.806946 0.099980
vt 0.900020 0.193054
vt 0.965833 0.307045
vt 0.999900 0.434187
vt 0.000100 0.565813
vt 0.500000 0.500000
vt 0.034168 0.692954
vt 0.099981 0.806946
vt 0.193054 0.900020
vt 0.307046 0.965833
vt 0.434187 0.999900
vt 0.565814 0.999900
vt 0.692955 0.965832
vt 0.806946 0.900019
vt 0.900020 0.806945
vt 0.965833 0.692954
vt 0.999900 0.565813
vt 0.999900 0.434187
vt 0.965833 0.307046
vt 0.900019 0.193054
vt 0.806946 0.099980
vt 0.692954 0.034167
vt 0.565813 0.000100
vt 0.434187 0.000100
vt 0.307046 0.034167
vt 0.193054 0.099981
vt 0.099981 0.193054
vt 0.034168 0.307046
vt 0.000100 0.434187
vn 0.7280 0.0958 -0.6789
vn 0.7280 0.0958 0.6789
vn 0.7280 -0.0958 0.6789
vn 0.7280 -0.0958 -0.6789
vn -0.0958 -0.7280 -0.6789
vn -0.0958 -0.7280 0.6789
vn -0.2810 -0.6784 0.6789
vn -0.2810 -0.6784 -0.6789
vn -0.6784 0.2810 -0.6789
vn -0.6784 0.2810 0.6789
vn -0.5825 0.4470 0.6789
vn -0.5825 0.4470 -0.6789
vn 0.6784 0.2810 -0.6789
vn 0.6784 0.2810 0.6789
vn 0.0958 -0.7280 -0.6789
vn 0.0958 -0.7280 0.6789
vn -0.7280 0.0958 -0.6789
vn -0.7280 0.0958 0.6789
vn 0.5825 0.4470 -0.6789
vn 0.5825 0.4470 0.6789
vn 0.2810 -0.6784 -0.6789
vn 0.2810 -0.6784 0.6789
vn -0.7280 -0.0958 -0.6789
vn -0.7280 -0.0958 0.6789
vn 0.4470 0.5825 -0.6789
vn 0.4470 0.5825 0.6789
vn 0.0958 0.7280 -0.6789
vn 0.0958 0.7280 0.6789
vn 0.2810 0.6784 0.6789
vn 0.2810 0.6784 -0.6789
vn 0.4470 -0.5825 -0.6789
vn 0.4470 -0.5825 0.6789
vn -0.6784 -0.2810 -0.6789
vn -0.6784 -0.2810 0.6789
vn -0.0958 0.7280 -0.6789
vn -0.0958 0.7280 0.6789
vn 0.5825 -0.4470 -0.6789
vn 0.5825 -0.4470 0.6789
vn -0.5825 -0.4470 -0.6789
vn -0.5825 -0.4470 0.6789
vn -0.2810 0.6784 -0.6789
vn -0.2810 0.6784 0.6789
vn 0.6784 -0.2810 -0.6789
vn 0.6784 -0.2810 0.6789
vn -0.4470 -0.5825 -0.6789
vn -0.4470 -0.5825 0.6789
vn -0.4470 0.5825 -0.6789
vn -0.4470 0.5825 0.6789
vn -0.0000 -0.0000 1.0000
vn -0.0000 0.0000 -1.0000
usemtl Default
s 1
f 1/1/1 2/2/2 3/3/3 4/4/4
f 5/5/5 6/6/6 7/7/7 8/8/8
f 9/9/9 10/10/10 11/11/11 12/12/12
f 13/13/13 14/14/14 2/15/2 1/16/1
f 15/17/15 16/18/16 6/19/6 5/20/5
f 17/21/17 18/22/18 10/23/10 9/24/9
f 19/25/19 20/26/20 14/27/14 13/28/13
f 21/29/21 22/30/22 16/31/16 15/32/15
f 23/33/23 24/34/24 18/35/18 17/36/17
f 25/37/25 26/38/26 20/39/20 19/40/19
f 27/41/27 28/42/28 29/43/29 30/44/30
f 31/45/31 32/46/32 22/47/22 21/48/21
f 33/49/33 34/50/34 24/51/24 23/52/23
f 30/53/30 29/54/29 26/55/26 25/56/25
f 35/57/35 36/58/36 28/59/28 27/60/27
f 37/61/37 38/62/38 32/63/32 31/64/31
f 39/65/39 40/66/40 34/67/34 33/68/33
f 41/69/41 42/70/42 36/71/36 35/72/35
f 43/73/43 44/74/44 38/75/38 37/76/37
f 45/77/45 46/78/46 40/79/40 39/80/39
f 47/81/47 48/82/48 42/83/42 41/84/41
f 4/85/4 3/86/3 44/87/44 43/88/43
f 8/89/8 7/90/7 46/91/46 45/92/45
f 12/93/12 11/94/11 48/95/48 47/96/47
f 2/97/2 14/98/14 49/99/49
f 14/98/14 20/100/20 49/99/49
f 20/100/20 26/101/26 49/99/49
f 26/101/26 29/102/29 49/99/49
f 29/102/29 28/103/28 49/99/49
f 28/103/28 36/104/36 49/99/49
f 36/104/36 42/105/42 49/99/49
f 42/105/42 48/106/48 49/99/49
f 48/106/48 11/107/11 49/99/49
f 11/107/11 10/108/10 49/99/49
f 10/108/10 18/109/18 49/99/49
f 18/109/18 24/110/24 49/99/49
f 24/110/24 34/111/34 49/99/49
f 34/111/34 40/112/40 49/99/49
f 40/112/40 46/113/46 49/99/49
f 46/113/46 7/114/7 49/99/49
f 7/114/7 6/115/6 49/99/49
f 6/115/6 16/116/16 49/99/49
f 16/116/16 22/117/22 49/99/49
f 22/117/22 32/118/32 49/99/49
f 32/118/32 38/119/38 49/99/49
f 38/119/38 44/120/44 49/99/49
f 44/120/44 3/121/3 49/99/49
f 3/121/3 2/97/2 49/99/49
f 1/122/1 50/123/50 13/124/13
f 13/124/13 50/123/50 19/125/19
f 19/125/19 50/123/50 25/126/25
f 25/126/25 50/123/50 30/127/30
f 30/127/30 50/123/50 27/128/27
f 27/128/27 50/123/50 35/129/35
f 35/129/35 50/123/50 41/130/41
f 41/130/41 50/123/50 47/131/47
f 47/131/47 50/123/50 12/132/12
f 12/132/12 50/123/50 9/133/9
f 9/133/9 50/123/50 17/134/17
f 17/134/17 50/123/50 23/135/23
f 23/135/23 50/123/50 33/136/33
f 33/136/33 50/123/50 39/137/39
f 39/137/39 50/123/50 45/138/45
f 45/138/45 50/123/50 8/139/8
f 8/139/8 50/123/50 5/140/5
f 5/140/5 50/123/50 15/141/15
f 15/141/15 50/123/50 21/142/21
f 21/142/21 50/123/50 31/143/31
f 31/143/31 50/123/50 37/144/37
f 37/144/37 50/123/50 43/145/43
f 43/145/43 50/123/50 4/146/4
f 4/146/4 50/123/50 1/122/1
