# Blender v2.79 (sub 0) OBJ File: ''
# www.blender.org
mtllib exit.mtl
o Text_CUText
v -3.770009 -1.995913 1.000000
v -2.720654 1.231910 1.000001
v -3.770009 2.039490 1.000001
v -2.020256 2.039490 1.000001
v -2.020256 1.231910 1.000001
v -2.720654 0.466704 1.000000
v -2.720654 -0.300994 1.000000
v -2.065121 0.466704 1.000000
v -2.065121 -0.300994 1.000000
v -2.720654 -1.188334 1.000000
v -1.950464 -1.188334 1.000000
v -1.950464 -1.995913 1.000000
v -1.479375 0.254840 1.000000
v -0.843781 2.039490 1.000001
v -1.858240 2.039490 1.000001
v -0.626931 0.940285 1.000001
v 0.477259 2.039490 1.000001
v -0.402604 2.039490 1.000001
v 0.110858 0.254840 1.000000
v -1.858240 -1.995913 1.000000
v -0.626931 -0.527814 1.000000
v 0.664199 -1.995913 1.000000
v -0.307886 -1.995913 1.000000
v -0.836303 -1.995913 1.000000
v 0.813750 -1.995913 1.000000
v 1.863104 2.039490 1.000001
v 0.813750 2.039490 1.000001
v 1.863104 -1.995913 1.000000
v 2.104880 1.231910 1.000001
v 4.398005 2.039490 1.000001
v 2.104880 2.039490 1.000001
v 4.398005 1.231910 1.000001
v 2.725519 1.231910 1.000001
v 2.725519 -1.995913 1.000000
v 3.774874 1.231910 1.000001
v 3.774874 -1.995913 1.000000
v -6.199148 -8.922374 0.999996
v 0.302240 -3.542721 0.999998
v -3.782659 -2.799278 0.999999
v 4.388756 -2.799278 0.999999
v 6.781972 -8.922374 0.999996
v 2.173819 -8.922374 0.999996
v -1.466989 -8.922374 0.999996
v -6.199148 -8.922374 -1.000004
v -3.782659 -2.799278 -1.000001
v 0.302240 -3.542721 -1.000002
v 4.388756 -2.799278 -1.000001
v 6.781972 -8.922374 -1.000004
v 2.173819 -8.922374 -1.000004
v -1.466989 -8.922374 -1.000004
v -3.770009 -1.995913 -1.000000
v -3.770009 2.039490 -0.999999
v -2.720654 1.231910 -0.999999
v -2.020256 2.039490 -0.999999
v -2.020256 1.231910 -0.999999
v -2.720654 0.466704 -1.000000
v -2.720654 -0.300994 -1.000000
v -2.065121 0.466704 -1.000000
v -2.065121 -0.300994 -1.000000
v -2.720654 -1.188334 -1.000000
v -1.950464 -1.188334 -1.000000
v -1.950464 -1.995913 -1.000000
v -1.479375 0.254840 -1.000000
v -1.858240 2.039490 -0.999999
v -0.843781 2.039490 -0.999999
v -0.626931 0.940285 -1.000000
v -0.402604 2.039490 -0.999999
v 0.477259 2.039490 -0.999999
v 0.110858 0.254840 -1.000000
v -1.858240 -1.995913 -1.000000
v -0.626931 -0.527814 -1.000000
v 0.664199 -1.995913 -1.000000
v -0.307886 -1.995913 -1.000000
v -0.836303 -1.995913 -1.000000
v 0.813750 -1.995913 -1.000000
v 0.813750 2.039490 -0.999999
v 1.863104 2.039490 -0.999999
v 1.863104 -1.995913 -1.000000
v 2.104880 1.231910 -0.999999
v 2.104880 2.039490 -0.999999
v 4.398005 2.039490 -0.999999
v 4.398005 1.231910 -0.999999
v 2.725519 1.231910 -0.999999
v 2.725519 -1.995913 -1.000000
v 3.774874 1.231910 -0.999999
v 3.774874 -1.995913 -1.000000
v 2.120268 8.868923 1.000004
v 2.120268 8.868923 -0.999996
v 0.351040 3.489270 -0.999998
v 0.351040 3.489270 1.000003
v -3.779719 2.745827 -0.999999
v -6.172936 8.868921 -0.999996
v -6.172936 8.868921 1.000004
v -3.779719 2.745827 1.000001
v 6.808182 8.868923 1.000004
v 6.808182 8.868923 -0.999996
v -1.520539 8.868923 -0.999996
v 4.391696 2.745827 1.000001
v -1.520539 8.868923 1.000004
v 4.391696 2.745827 -0.999999
vt 0.625000 0.000000
vt 1.000000 0.000000
vt 1.000000 1.000000
vt 0.625000 0.000000
vt 1.000000 0.000000
vt 1.000000 0.000000
vt 1.000000 1.000000
vt 1.000000 0.000000
vt 1.000000 1.000000
vt 1.000000 0.000000
vt 1.000000 1.000000
vt 0.625000 0.000000
vt 1.000000 0.000000
vt 1.000000 0.000000
vt 1.000000 1.000000
vt 1.000000 0.000000
vt 1.000000 1.000000
vt 1.000000 0.000000
vt 1.000000 1.000000
vt 1.000000 0.000000
vt 1.000000 1.000000
vt 0.625000 0.000000
vt 1.000000 0.000000
vt 1.000000 1.000000
vt 0.625000 0.000000
vt 1.000000 0.000000
vt 1.000000 1.000000
vt 0.625000 0.000000
vt 1.000000 0.000000
vt 1.000000 1.000000
vt 1.000000 0.000000
vt 1.000000 1.000000
vt 0.625000 0.000000
vt 1.000000 0.000000
vt 1.000000 1.000000
vt 0.625000 0.000000
vt 1.000000 0.000000
vt 1.000000 1.000000
vt 0.625000 0.000000
vt 1.000000 1.000000
vt 0.625000 0.000000
vt 1.000000 1.000000
vt 0.625000 0.000000
vt 1.000000 0.000000
vt 1.000000 1.000000
vt 1.000000 0.000000
vt 1.000000 1.000000
vt 0.625000 0.000000
vt 1.000000 0.000000
vt 1.000000 1.000000
vt 1.000000 0.000000
vt 1.000000 1.000000
vt 0.625000 0.000000
vt 1.000000 1.000000
vt 0.625000 0.000000
vt 1.000000 0.000000
vt 1.000000 1.000000
vt 0.625000 0.000000
vt 1.000000 0.000000
vt 1.000000 1.000000
vt 0.000000 0.000000
vt 0.375000 0.000000
vt 0.375000 1.000000
vt 0.000000 0.000000
vt 0.375000 0.000000
vt 0.375000 0.000000
vt 0.375000 1.000000
vt 0.000000 0.000000
vt 0.375000 1.000000
vt 0.000000 0.000000
vt 0.375000 1.000000
vt 0.000000 0.000000
vt 0.375000 0.000000
vt 0.375000 1.000000
vt 0.000000 0.000000
vt 0.375000 1.000000
vt 0.375000 0.000000
vt 0.375000 1.000000
vt 0.000000 0.000000
vt 0.375000 0.000000
vt 0.000000 0.000000
vt 0.375000 0.000000
vt 0.375000 1.000000
vt 0.000000 1.000000
vt 0.375000 0.000000
vt 0.000000 1.000000
vt 0.375000 0.000000
vt 0.000000 1.000000
vt 0.000000 0.000000
vt 0.375000 1.000000
vt 0.000000 1.000000
vt 0.000000 0.000000
vt 0.375000 0.000000
vt 0.000000 1.000000
vt 0.375000 1.000000
vt 0.000000 1.000000
vt 0.000000 0.000000
vt 0.375000 1.000000
vt 0.000000 1.000000
vt 0.625000 0.000000
vt 1.000000 0.000000
vt 1.000000 1.000000
vt 0.625000 0.000000
vt 1.000000 1.000000
vt 1.000000 0.000000
vt 1.000000 1.000000
vt 1.000000 0.000000
vt 1.000000 1.000000
vt 1.000000 0.000000
vt 1.000000 1.000000
vt 0.625000 0.000000
vt 1.000000 1.000000
vt 1.000000 0.000000
vt 1.000000 1.000000
vt 1.000000 0.000000
vt 1.000000 1.000000
vt 1.000000 0.000000
vt 1.000000 1.000000
vt 1.000000 0.000000
vt 1.000000 1.000000
vt 0.625000 0.000000
vt 1.000000 0.000000
vt 1.000000 1.000000
vt 0.625000 0.000000
vt 1.000000 0.000000
vt 1.000000 1.000000
vt 0.625000 0.000000
vt 1.000000 0.000000
vt 1.000000 1.000000
vt 1.000000 0.000000
vt 1.000000 1.000000
vt 0.625000 0.000000
vt 1.000000 0.000000
vt 1.000000 1.000000
vt 0.625000 0.000000
vt 1.000000 0.000000
vt 1.000000 1.000000
vt 0.625000 0.000000
vt 1.000000 0.000000
vt 0.625000 0.000000
vt 1.000000 0.000000
vt 0.625000 0.000000
vt 1.000000 0.000000
vt 1.000000 1.000000
vt 1.000000 0.000000
vt 1.000000 1.000000
vt 0.625000 0.000000
vt 1.000000 0.000000
vt 1.000000 1.000000
vt 1.000000 0.000000
vt 1.000000 1.000000
vt 0.625000 0.000000
vt 1.000000 0.000000
vt 0.625000 0.000000
vt 1.000000 0.000000
vt 1.000000 1.000000
vt 0.625000 0.000000
vt 1.000000 0.000000
vt 1.000000 1.000000
vt 0.625000 0.000000
vt 1.000000 0.000000
vt 0.625000 1.000000
vt 0.625000 0.000000
vt 0.625000 1.000000
vt 0.625000 0.000000
vt 0.625000 1.000000
vt 0.625000 0.000000
vt 1.000000 0.000000
vt 0.625000 1.000000
vt 1.000000 0.000000
vt 0.625000 1.000000
vt 0.625000 0.000000
vt 0.625000 1.000000
vt 0.625000 0.000000
vt 1.000000 1.000000
vt 0.625000 1.000000
vt 1.000000 0.000000
vt 0.625000 1.000000
vt 0.625000 0.000000
vt 1.000000 1.000000
vt 0.625000 1.000000
vt 1.000000 1.000000
vt 0.625000 1.000000
vt 0.625000 0.000000
vt 1.000000 0.000000
vt 0.625000 1.000000
vt 1.000000 1.000000
vt 0.625000 1.000000
vt 1.000000 0.000000
vt 0.625000 1.000000
vt 1.000000 1.000000
vt 0.625000 1.000000
vt 0.625000 0.000000
vt 1.000000 1.000000
vt 0.625000 1.000000
vt 0.625000 1.000000
vt 0.625000 0.000000
vt 1.000000 1.000000
vt 0.625000 1.000000
vt 0.625000 0.000000
vt 1.000000 0.000000
vt 0.625000 1.000000
vt 0.625000 0.000000
vt 0.625000 1.000000
vt 0.625000 0.000000
vt 0.625000 1.000000
vt 0.625000 0.000000
vt 1.000000 1.000000
vt 0.625000 1.000000
vt 1.000000 1.000000
vt 0.625000 1.000000
vt 0.625000 0.000000
vt 1.000000 1.000000
vt 0.625000 1.000000
vt 1.000000 0.000000
vt 0.625000 1.000000
vt 0.625000 0.000000
vt 1.000000 1.000000
vt 0.625000 1.000000
vt 0.625000 1.000000
vt 1.000000 0.000000
vt 1.000000 1.000000
vt 0.625000 1.000000
vt 0.625000 0.000000
vt 1.000000 0.000000
vt 0.625000 1.000000
vt 0.625000 1.000000
vt 0.625000 0.000000
vt 1.000000 0.000000
vt 0.625000 1.000000
vt 0.625000 0.000000
vt 0.625000 1.000000
vt 0.625000 1.000000
vt 1.000000 1.000000
vt 0.625000 1.000000
vt 1.000000 0.000000
vt 0.625000 1.000000
vt 0.625000 0.000000
vt 1.000000 0.000000
vt 0.625000 1.000000
vt 0.625000 0.000000
vt 1.000000 1.000000
vt 0.625000 1.000000
vt 0.000000 0.000000
vt 0.375000 0.000000
vt 0.375000 1.000000
vt 0.000000 1.000000
vt 0.000000 0.000000
vt 0.375000 0.000000
vt 0.375000 1.000000
vt 0.000000 0.000000
vt 0.375000 0.000000
vt 0.375000 1.000000
vt 0.000000 1.000000
vt 0.000000 0.000000
vt 0.375000 0.000000
vt 0.375000 1.000000
vt 0.000000 1.000000
vt 0.000000 0.000000
vt 0.375000 0.000000
vt 0.375000 0.000000
vt 0.375000 1.000000
vt 0.000000 0.000000
vt 0.375000 0.000000
vt 0.375000 1.000000
vt 0.375000 0.000000
vt 0.375000 1.000000
vt 0.000000 0.000000
vt 0.375000 1.000000
vt 0.000000 0.000000
vt 0.375000 0.000000
vt 0.375000 1.000000
vt 0.000000 1.000000
vt 0.000000 0.000000
vt 0.000000 0.000000
vt 0.375000 1.000000
vt 0.000000 1.000000
vt 0.000000 0.000000
vt 0.375000 0.000000
vt 0.000000 1.000000
vt 0.375000 1.000000
vt 0.000000 1.000000
vn 0.0000 -0.0000 1.0000
vn 0.0000 -0.4472 0.8944
vn 0.0000 -1.0000 -0.0000
vn 0.0000 0.0000 -1.0000
vn 0.9499 -0.3124 -0.0000
vn 0.0000 1.0000 0.0000
vn 0.9314 0.3640 0.0000
vn -0.9445 -0.3286 -0.0000
vn -0.9302 0.3671 0.0000
vn -0.0000 0.7173 0.6967
vn 0.9711 0.2387 0.0000
vn 0.9796 -0.2011 -0.0000
vn -0.9782 -0.2077 -0.0000
vn 1.0000 0.0000 0.0000
vn -1.0000 0.0000 0.0000
vn -0.9772 -0.2124 -0.0000
vn 0.9811 0.1935 0.0000
vn -0.9861 0.1660 0.0000
vn 0.9900 -0.1412 -0.0000
vn -0.9798 0.2000 0.0000
vn -0.9499 0.3124 0.0000
vn -0.9314 -0.3640 0.0000
vn 0.9302 -0.3671 0.0000
vn 0.9445 0.3286 0.0000
usemtl Material.001
s 1
f 1/1/1 2/2/1 3/3/1
f 2/4/1 4/5/1 3/3/1
f 2/4/1 5/6/1 4/7/1
f 1/1/1 6/8/1 2/9/1
f 1/1/1 7/10/1 6/11/1
f 7/12/1 8/13/1 6/11/1
f 7/12/1 9/14/1 8/15/1
f 1/1/1 10/16/1 7/17/1
f 1/1/1 11/18/1 10/19/1
f 1/1/1 12/20/1 11/21/1
f 13/22/1 14/23/1 15/24/1
f 14/25/1 13/26/1 16/27/1
f 16/28/1 17/29/1 18/30/1
f 16/28/1 19/31/1 17/32/1
f 13/22/1 19/31/1 16/27/1
f 20/33/1 21/34/1 13/35/1
f 21/36/1 19/31/1 13/35/1
f 21/36/1 22/37/1 19/38/1
f 23/39/1 22/37/1 21/40/1
f 24/41/1 21/34/1 20/42/1
f 25/43/1 26/44/1 27/45/1
f 25/43/1 28/46/1 26/47/1
f 29/48/1 30/49/1 31/50/1
f 29/48/1 32/51/1 30/52/1
f 33/53/2 32/51/3 29/54/3
f 34/55/1 35/56/1 33/57/1
f 35/58/2 32/51/3 33/57/2
f 34/55/1 36/59/1 35/60/1
f 37/61/1 38/62/1 39/63/1
f 38/64/1 40/65/1 39/63/1
f 38/64/1 41/66/1 40/67/1
f 42/68/1 41/66/1 38/69/1
f 43/70/1 38/62/1 37/71/1
f 44/72/4 45/73/4 46/74/4
f 46/75/4 45/73/4 47/76/4
f 46/75/4 47/77/4 48/78/4
f 49/79/4 46/80/4 48/78/4
f 50/81/4 44/82/4 46/74/4
f 37/61/3 44/82/3 50/83/3 43/84/3
f 43/70/5 50/85/5 46/74/5 38/86/5
f 42/68/3 49/87/3 48/78/3 41/88/3
f 40/89/6 47/77/6 45/90/6 39/91/6
f 41/92/7 48/93/7 47/76/7 40/94/7
f 38/64/8 46/80/8 49/95/8 42/96/8
f 39/97/9 45/73/9 44/98/9 37/99/9
f 51/100/4 52/101/4 53/102/4
f 53/103/4 52/101/4 54/104/4
f 53/103/4 54/105/4 55/106/4
f 51/100/4 53/107/4 56/108/4
f 51/100/4 56/109/4 57/110/4
f 57/111/4 56/109/4 58/112/4
f 57/111/4 58/113/4 59/114/4
f 51/100/4 57/115/4 60/116/4
f 51/100/4 60/117/4 61/118/4
f 51/100/4 61/119/4 62/120/4
f 63/121/4 64/122/4 65/123/4
f 65/124/4 66/125/4 63/126/4
f 66/127/4 67/128/4 68/129/4
f 66/127/4 68/130/4 69/131/4
f 63/121/4 66/125/4 69/131/4
f 70/132/4 63/133/4 71/134/4
f 71/135/4 63/133/4 69/131/4
f 71/135/4 69/136/4 72/137/4
f 73/138/4 71/139/4 72/137/4
f 74/140/4 70/141/4 71/134/4
f 75/142/4 76/143/4 77/144/4
f 75/142/4 77/145/4 78/146/4
f 79/147/4 80/148/4 81/149/4
f 79/147/4 81/150/4 82/151/4
f 83/152/2 79/153/3 82/151/3
f 84/154/4 83/155/4 85/156/4
f 85/157/10 83/155/2 82/151/3
f 84/154/4 85/158/4 86/159/4
f 22/160/11 72/161/11 69/131/11 19/162/11
f 19/163/12 69/136/12 68/129/12 17/164/12
f 15/165/13 64/122/13 63/126/13 13/166/13
f 12/167/14 62/168/14 61/118/14 11/169/14
f 23/39/3 73/170/3 72/137/3 22/171/3
f 10/172/14 60/117/14 57/110/14 7/173/14
f 26/174/6 77/145/6 76/175/6 27/176/6
f 34/55/3 84/177/3 86/159/3 36/178/3
f 27/179/15 76/143/15 75/180/15 25/181/15
f 29/48/3 79/153/3 83/182/2 33/183/2
f 5/184/14 55/185/14 54/104/14 4/186/14
f 33/53/15 83/155/15 84/187/15 34/188/15
f 25/43/3 75/189/3 78/146/3 28/190/3
f 20/33/3 70/141/3 74/191/3 24/192/3
f 30/193/6 81/150/6 80/194/6 31/195/6
f 35/58/2 85/158/10 82/151/3 32/196/3
f 31/197/15 80/148/15 79/198/15 29/199/15
f 28/200/14 78/201/14 77/144/14 26/202/14
f 8/203/6 58/113/6 56/108/6 6/204/6
f 11/205/6 61/119/6 60/116/6 10/206/6
f 17/207/6 68/130/6 67/208/6 18/209/6
f 21/36/16 71/139/16 73/210/16 23/211/16
f 4/212/6 54/105/6 52/213/6 3/214/6
f 1/1/3 51/215/3 62/120/3 12/216/3
f 3/217/15 52/101/15 51/218/15 1/219/15
f 16/28/17 66/125/17 65/123/17 14/220/17
f 14/25/6 65/221/6 64/222/6 15/223/6
f 9/224/14 59/225/14 58/112/14 8/226/14
f 7/12/3 57/115/3 59/114/3 9/227/3
f 32/228/14 82/229/14 81/149/14 30/230/14
f 6/231/14 56/109/14 53/102/14 2/232/14
f 2/4/3 53/107/3 55/106/3 5/233/3
f 13/22/18 63/133/18 70/234/18 20/235/18
f 24/41/19 74/236/19 71/134/19 21/237/19
f 36/238/14 86/239/14 85/156/14 35/240/14
f 18/241/20 67/128/20 66/242/20 16/243/20
f 87/244/21 88/245/21 89/246/21 90/247/21
f 89/248/4 91/249/4 92/250/4
f 93/251/22 92/252/22 91/253/22 94/254/22
f 95/255/6 96/256/6 88/257/6 87/258/6
f 97/259/4 89/260/4 92/250/4
f 87/244/1 90/261/1 95/262/1
f 90/263/1 94/264/1 98/265/1
f 90/263/1 93/266/1 94/267/1
f 95/255/1 90/261/1 98/265/1
f 99/268/1 93/266/1 90/269/1
f 98/270/23 100/271/23 96/272/23 95/273/23
f 88/274/4 96/256/4 89/246/4
f 89/248/4 100/271/4 91/253/4
f 94/275/3 91/249/3 100/276/3 98/277/3
f 96/278/4 100/271/4 89/246/4
f 99/268/6 97/279/6 92/250/6 93/280/6
f 90/263/24 89/260/24 97/281/24 99/282/24
